<svg xmlns="http://www.w3.org/2000/svg" xmlns:xlink="http://www.w3.org/1999/xlink" width="50" height="50" viewBox="0 0 50 50">
    <defs>
        <path id="a" d="M0 0h50v50H0z"/>
    </defs>
    <g fill="none" fill-rule="evenodd">
        <mask id="b" fill="#fff">
            <use xlink:href="#a"/>
        </mask>
        <use fill="#D8D8D8" xlink:href="#a"/>
        <g mask="url(#b)">
            <path fill="#F40002" d="M0 50h85V0H0z"/>
            <g fill="#FAF408">
                <path d="M7.48 17.997l1.522-4.96L5 9.961l4.957-.01L11.502 5l1.54 4.953L18 9.968l-4.006 3.07L15.514 18l-4.016-3.055zM23.223 19.749l1.824.712L26.314 19l-.134 1.907 1.82.721-1.905.467L25.95 24l-1.044-1.619L23 22.84l1.26-1.467zM33 10.633l-1.908-.33L30.18 12l-.273-1.906L28 9.754l1.738-.846L29.473 7l1.348 1.382 1.744-.84-.907 1.703zM28.954 19.999l.585-1.908L28 16.908l1.907-.003.594-1.905.592 1.906L33 16.91l-1.54 1.181.584 1.909-1.545-1.176zM23.384 3.593l1.763.809L26.475 3l-.232 1.907L28 5.724l-1.906.37L25.852 8l-.945-1.679L23 6.684l1.322-1.408z"/>
            </g>
        </g>
    </g>
</svg>
