<svg xmlns="http://www.w3.org/2000/svg" xmlns:xlink="http://www.w3.org/1999/xlink" width="50" height="50" viewBox="0 0 50 50">
    <defs>
        <path id="a" d="M0 0h50v50H0z"/>
    </defs>
    <g fill="none" fill-rule="evenodd">
        <mask id="b" fill="#fff">
            <use xlink:href="#a"/>
        </mask>
        <use fill="#FFF" xlink:href="#a"/>
        <g mask="url(#b)">
            <path fill="#B22234" d="M-11 50h79.808v-3.846H-11z"/>
            <path fill="#FFF" d="M-11 46.154h79.808v-3.846H-11z"/>
            <path fill="#B22234" d="M-11 42.308h79.808v-3.846H-11z"/>
            <path fill="#FFF" d="M-11 38.462h79.808v-3.847H-11z"/>
            <path fill="#B22234" d="M-11 34.615h79.808V30.77H-11z"/>
            <path fill="#FFF" d="M-11 30.77h79.808v-3.847H-11z"/>
            <path fill="#B22234" d="M-11 26.923h79.808v-3.846H-11z"/>
            <path fill="#FFF" d="M-11 23.077h79.808V19.23H-11z"/>
            <path fill="#B22234" d="M-11 19.23h79.808v-3.845H-11z"/>
            <path fill="#FFF" d="M-11 15.385h79.808v-3.847H-11z"/>
            <path fill="#B22234" d="M-11 11.538h79.808V7.692H-11z"/>
            <path fill="#FFF" d="M-11 7.692h79.808V3.846H-11z"/>
            <path fill="#B22234" d="M-11 3.846h79.808V0H-11z"/>
            <g>
                <path fill="#3C3B6E" d="M-11 26.923h36.538V0H-11z"/>
                <g fill="#FFF">
                    <path d="M1.093 5.94l-.308.948h-.997l.805.589-.308.948.808-.586.807.586-.307-.948.806-.589h-.997zM1.093 10.134l-.308.948h-.997l.805.588-.308.948.808-.585.807.585-.307-.948.806-.588h-.997zM1.093 14.327l-.308.948h-.997l.805.589-.308.948.808-.586.807.586-.307-.948.806-.589h-.997zM1.402 19.47l-.31-.949-.308.948h-.997l.806.588-.308.949.808-.587.807.587-.308-.95.807-.587zM4.05 3.73l-.307.95h-.998l.807.586-.31.95.808-.587.808.587-.308-.95.807-.586H4.36zM4.05 7.923l-.307.95h-.998l.807.587-.31.95.808-.588.808.588-.308-.95.807-.587H4.36zM4.05 12.117l-.307.95h-.998l.807.586-.31.95.808-.587.808.587-.308-.95.807-.586H4.36zM4.05 16.312l-.307.948h-.998l.807.589-.31.948.808-.586.808.586-.308-.948.807-.589H4.36zM4.36 21.454l-.31-.948-.308.948h-.997l.808.588-.31.949.808-.587.807.587-.308-.95.807-.587zM6.973 5.94l-.31.948h-.997l.807.589-.308.948.808-.586.807.586-.31-.948.807-.589H7.28zM6.973 10.134l-.31.948h-.997l.807.588-.308.948.808-.585.807.585-.31-.948.807-.588H7.28zM6.973 14.327l-.31.948h-.997l.807.589-.308.948.808-.586.807.586-.31-.948.807-.589H7.28zM7.28 19.47l-.307-.949-.31.948h-.998l.808.588-.308.949.808-.587.807.587-.31-.95.808-.587zM9.93 3.73l-.307.95h-1l.807.586-.307.95.807-.587.808.587-.308-.95.807-.586h-.999zM9.93 7.923l-.307.95h-1l.807.587-.307.95.807-.588.808.588-.308-.95.807-.587h-.999zM9.93 12.117l-.307.95h-1l.807.586-.307.95.807-.587.808.587-.308-.95.807-.586h-.999zM9.93 16.312l-.307.948h-1l.807.589-.307.948.807-.586.808.586-.308-.948.807-.589h-.999zM10.238 21.454l-.307-.948-.309.948h-.999l.808.588-.308.949.808-.587.807.587-.308-.95.807-.587zM12.85 5.94l-.307.948h-1l.808.589-.308.948.808-.586.807.586-.307-.948.806-.589h-.999zM12.85 10.134l-.307.948h-1l.808.588-.308.948.808-.585.807.585-.307-.948.806-.588h-.999zM12.85 14.327l-.307.948h-1l.808.589-.308.948.808-.586.807.586-.307-.948.806-.589h-.999zM13.159 19.47l-.308-.949-.309.948h-.999l.808.588-.308.949.808-.587.808.587-.309-.95.808-.587zM15.809 3.73l-.308.95h-1l.808.586-.308.95.808-.587.807.587-.307-.95.806-.586h-.997zM15.809 7.923l-.308.95h-1l.808.587-.308.95.808-.588.807.588-.307-.95.806-.587h-.997zM15.809 12.117l-.308.95h-1l.808.586-.308.95.808-.587.807.587-.307-.95.806-.586h-.997zM15.809 16.312l-.308.948h-1l.808.589-.308.948.808-.586.807.586-.307-.948.806-.589h-.997zM16.118 21.454l-.31-.948-.308.948h-.999l.808.588-.308.949.808-.587.807.587-.308-.95.807-.587zM18.729 5.94l-.308.948h-.997l.807.589-.31.948.808-.586.808.586-.308-.948.807-.589h-.998zM18.729 10.134l-.308.948h-.997l.807.588-.31.948.808-.585.808.585-.308-.948.807-.588h-.998zM18.729 14.327l-.308.948h-.997l.807.589-.31.948.808-.586.808.586-.308-.948.807-.589h-.998zM19.039 19.47l-.31-.949-.309.948h-.997l.808.588-.31.949.808-.587.808.587-.309-.95.808-.587zM20.88 6.216l.807-.587.81.587-.311-.95.808-.586h-.998l-.31-.95-.307.95h-.998l.808.586zM21.687 7.923l-.308.95h-.997l.807.587-.31.95.808-.588.81.588-.31-.95.806-.587h-.997zM21.687 12.117l-.308.95h-.997l.807.586-.31.95.808-.587.81.587-.31-.95.806-.586h-.997zM21.687 16.312l-.308.948h-.997l.807.589-.31.948.808-.586.81.586-.31-.948.806-.589h-.997zM21.997 21.454l-.31-.948-.309.948h-.997l.808.588-.31.949.808-.587.81.587-.311-.95.808-.587z"/>
                </g>
            </g>
        </g>
    </g>
</svg>
